<svg width="387" height="225" viewBox="0 0 387 225" fill="none" xmlns="http://www.w3.org/2000/svg">
<rect width="387" height="225" fill="none"/>
<path d="M99.6867 95.9153C95.6339 141.915 95.6938 144.915 92.6938 181.915" stroke="black" stroke-width="5" stroke-linecap="round" stroke-linejoin="round"/>
<path d="M159.424 45C161.424 63.5 161.288 57.5 161.288 75.5C162.148 92.9902 157.424 119.5 168.424 134" stroke="black" stroke-width="5" stroke-linecap="round" stroke-linejoin="round"/>
<path d="M232.236 101.116C222.34 89.377 199.439 90.1244 194.096 104.979C192.68 108.916 192.993 113.272 193.12 117.392C193.21 120.302 195.247 126.487 198.309 127.749C199.894 128.402 200.044 130.202 201.547 130.708C203.524 131.375 205.165 132.728 207.046 133.503C209.928 134.69 214.719 133.439 217.512 132.969C226.007 131.537 232.236 121.205 232.236 113.857C232.236 110.843 232.236 107.829 232.236 104.815C232.236 104.359 232.25 101.445 231.438 101.445C230.758 101.445 231.438 102.705 231.438 103.335C231.438 104.445 231.438 105.555 231.438 106.664C231.438 112.92 229.451 122.997 232.414 128.489C235.335 133.904 244.397 132.13 249 130.708" stroke="black" stroke-width="5" stroke-linecap="round" stroke-linejoin="round"/>
<path d="M99.6938 94.9153C101.181 94.9153 105.694 92.9999 117.631 92.9999C129.568 92.9999 134.017 99.364 135.6 106.892C136.148 109.5 136.683 112.148 136.683 114.826C136.683 115.958 136.708 117.092 136.683 118.222C136.65 119.727 135.541 121.106 134.962 122.467C134.004 124.723 132.465 126.664 130.884 128.565C129.667 130.029 128.135 130.535 126.663 131.606C125.248 132.634 121.751 132.621 120.068 132.717C117.009 132.891 113.495 133.079 110.462 132.671C106.179 132.094 102.035 129.189 99.6938 125.786" stroke="black" stroke-width="5" stroke-linecap="round" stroke-linejoin="round"/>
<path d="M269.065 97.9999C269.065 103.178 269.065 108.356 269.065 113.534C269.065 116.687 268.685 119.95 269.767 122.904C270.363 124.53 271.047 125.995 272.224 127.412C273.668 129.15 275.652 130.554 277.051 132.238C278.94 134.513 287.69 134.43 289.995 132.872C290.983 132.205 292.545 131.96 293.725 131.463C294.869 130.982 295.601 130.3 296.621 129.702C298.448 128.63 300.027 126.747 300.746 125.017C301.072 124.23 301.161 123.602 301.645 122.868C302.258 121.939 301.941 121.045 302.325 120.121C302.637 119.369 303.284 118.589 303.4 117.796C303.522 116.968 303.283 116.115 303.51 115.295C304.389 112.119 303.817 108.472 303.817 105.221C303.817 103.953 303.817 102.685 303.817 101.417C303.817 100.184 303.027 99.1532 303.027 97.9999" stroke="black" stroke-width="5" stroke-linecap="round" stroke-linejoin="round"/>
<path d="M303.1 97.9999C303.1 103.61 303.488 109.162 303.488 114.763C303.488 118.461 303.488 122.159 303.488 125.856C303.488 130.643 304.486 135.156 305.039 139.872C305.398 142.934 305.815 146.15 305.815 149.216C305.815 152.596 306.427 156.439 305.427 159.732C303.94 164.629 301.054 169.099 297.866 173.415C295.103 177.157 289.016 178 284.08 178C278.817 178 274.308 177.928 269.927 175.235C267.023 173.45 264.066 170.122 263.573 167.116C263.043 163.889 262 160.818 262 157.527" stroke="black" stroke-width="5" stroke-linecap="round" stroke-linejoin="round"/>
</svg>
