<svg width="387" height="225" viewBox="0 0 387 225" fill="none" xmlns="http://www.w3.org/2000/svg">
<rect width="387" height="225" fill="none"/>
<path d="M186.744 123.116C176.848 111.377 153.947 112.125 148.604 126.979C147.188 130.916 147.502 135.272 147.629 139.392C147.718 142.302 149.755 148.487 152.817 149.749C154.402 150.402 154.552 152.202 156.055 152.708C158.033 153.375 159.673 154.728 161.554 155.503C164.436 156.69 169.227 155.439 172.02 154.969C180.515 153.537 186.744 143.205 186.744 135.857C186.744 132.843 186.744 129.829 186.744 126.815C186.744 126.359 186.758 123.445 185.946 123.445C185.266 123.445 185.946 124.705 185.946 125.335C185.946 126.445 185.946 127.555 185.946 128.665C185.946 134.92 183.959 144.997 186.922 150.489C189.844 155.904 198.905 154.13 203.508 152.708" stroke="black" stroke-width="5" stroke-linecap="round" stroke-linejoin="round"/>
<path d="M85.76 153.204C85.3542 107.091 85.6033 104.087 85.4977 67" stroke="black" stroke-width="5" stroke-linecap="round" stroke-linejoin="round"/>
<path d="M85.728 154.203C87.2664 154.26 91.8609 156.345 104.212 156.799C116.564 157.253 121.418 151.062 123.352 143.6C124.021 141.015 124.679 138.389 124.785 135.712C124.829 134.582 124.9 133.45 124.918 132.319C124.943 130.814 123.85 129.394 123.305 128.012C122.402 125.722 120.886 123.723 119.326 121.764C118.124 120.254 116.559 119.69 115.078 118.565C113.654 117.483 110.035 117.363 108.297 117.203C105.139 116.913 101.511 116.592 98.3565 116.884C93.9018 117.298 89.4994 120.043 86.9432 123.355" stroke="black" stroke-width="5" stroke-linecap="round" stroke-linejoin="round"/>
<path d="M85.4977 150C84.5749 151.101 82.1342 156.111 80.9739 156.505C78.9878 157.179 77.6525 158 75.4977 158" stroke="black" stroke-width="5" stroke-linecap="round" stroke-linejoin="round"/>
<path d="M262.224 127.968C262.171 124.976 258.616 120.649 255.959 119.239C252.367 117.332 247.908 115.751 243.671 115.327C238.503 115.42 233.989 117.046 230.789 119.689C226.832 122.957 224.764 128.272 223.708 133.147C222.678 137.897 224.075 144.776 227.353 148.571C229.267 150.787 231.671 152.22 234.215 153.476C236.319 154.515 238.276 155.339 241.104 155.787C245.332 155.712 241.573 155.779 245.332 155.712C247.278 155.677 250.089 155.59 254.214 153.119C256.539 151.726 258.884 151.478 260.666 145.958" stroke="black" stroke-width="5" stroke-linecap="round" stroke-linejoin="round"/>
<path d="M292.714 127C300.161 125.867 301.73 125.454 307.608 121.647C311.331 119.235 311.863 119.838 317.714 112" stroke="black" stroke-width="5" stroke-linecap="round" stroke-linejoin="round"/>
<path d="M298.714 127C304.358 132.32 308.514 130.83 315.514 141.774C318.314 147.792 318.314 151.075 319.714 156" stroke="black" stroke-width="5" stroke-linecap="round" stroke-linejoin="round"/>
<path d="M289.714 81C289.714 82.5102 289.714 151.708 289.714 153.218C289.714 154.261 289.714 154.567 289.714 156" stroke="black" stroke-width="5" stroke-linecap="round" stroke-linejoin="round"/>
</svg>
