<svg width="387" height="225" viewBox="0 0 387 225" fill="none" xmlns="http://www.w3.org/2000/svg">
<rect width="387" height="225" fill="none"/>
<path d="M138.236 102.116C128.34 90.3771 105.439 91.1245 100.096 105.979C98.6801 109.916 98.9935 114.272 99.1205 118.392C99.2102 121.302 101.247 127.487 104.309 128.749C105.894 129.402 106.044 131.202 107.547 131.708C109.524 132.375 111.165 133.728 113.046 134.503C115.928 135.69 120.719 134.439 123.512 133.969C132.007 132.537 138.236 122.205 138.236 114.857C138.236 111.843 138.236 108.829 138.236 105.815C138.236 105.359 138.25 102.445 137.438 102.445C136.758 102.445 137.438 103.705 137.438 104.335C137.438 105.445 137.438 106.555 137.438 107.665C137.438 113.92 135.451 123.997 138.414 129.489C141.335 134.904 150.397 133.13 155 131.708" stroke="black" stroke-width="5" stroke-linecap="round" stroke-linejoin="round"/>
<path d="M85.2361 102.116C75.3402 90.3771 52.4392 91.1245 47.0962 105.979C45.6801 109.916 45.9935 114.272 46.1205 118.392C46.2102 121.302 48.2466 127.487 51.3093 128.749C52.8942 129.402 53.0442 131.202 54.5468 131.708C56.5245 132.375 58.1647 133.728 60.046 134.503C62.9275 135.69 67.719 134.439 70.5123 133.969C79.007 132.537 85.2361 122.205 85.2361 114.857C85.2361 111.843 85.2361 108.829 85.2361 105.815C85.2361 105.359 85.2503 102.445 84.4379 102.445" stroke="black" stroke-width="5" stroke-linecap="round" stroke-linejoin="round"/>
<path d="M161.424 46C163.424 64.5 163.288 58.5 163.288 76.5C164.148 93.9902 159.424 120.5 170.424 135" stroke="black" stroke-width="5" stroke-linecap="round" stroke-linejoin="round"/>
<path d="M189.424 47C191.424 65.5 191.288 59.5 191.288 77.5C192.148 94.9902 187.424 121.5 198.424 136" stroke="black" stroke-width="5" stroke-linecap="round" stroke-linejoin="round"/>
<path d="M305.065 99C305.065 104.178 305.065 109.356 305.065 114.534C305.065 117.687 304.685 120.95 305.767 123.904C306.363 125.53 307.047 126.995 308.224 128.412C309.668 130.151 311.652 131.554 313.051 133.238C314.94 135.513 323.69 135.43 325.995 133.872C326.983 133.205 328.545 132.96 329.725 132.463C330.869 131.982 331.601 131.301 332.621 130.702C334.448 129.63 336.027 127.747 336.746 126.017C337.072 125.23 337.161 124.602 337.645 123.869C338.258 122.939 337.941 122.046 338.325 121.121C338.637 120.369 339.284 119.589 339.4 118.796C339.522 117.969 339.283 117.115 339.51 116.295C340.389 113.119 339.817 109.472 339.817 106.221C339.817 104.953 339.817 103.685 339.817 102.417C339.817 101.184 339.027 100.153 339.027 99" stroke="black" stroke-width="5" stroke-linecap="round" stroke-linejoin="round"/>
<path d="M339.1 99C339.1 104.611 339.488 110.162 339.488 115.763C339.488 119.461 339.488 123.159 339.488 126.857C339.488 131.644 340.486 136.156 341.039 140.872C341.398 143.934 341.815 147.15 341.815 150.216C341.815 153.596 342.427 157.439 341.427 160.732C339.94 165.629 337.054 170.099 333.866 174.416C331.103 178.157 325.016 179 320.08 179C314.817 179 310.308 178.928 305.927 176.235C303.023 174.45 300.066 171.122 299.573 168.116C299.043 164.889 298 161.818 298 158.528" stroke="black" stroke-width="5" stroke-linecap="round" stroke-linejoin="round"/>
<path d="M86.1004 96.1086C86.1004 101.719 86.4882 107.271 86.4882 112.872C86.4882 116.569 86.4882 120.267 86.4882 123.965C86.4882 128.752 87.4862 133.265 88.0391 137.981C88.3981 141.043 88.8146 144.258 88.8146 147.325C88.8146 150.705 89.4266 154.548 88.4269 157.841C86.9404 162.738 84.0543 167.208 80.8659 171.524C78.1026 175.265 72.0159 176.109 67.0796 176.109C61.8169 176.109 57.3079 176.037 52.9271 173.344C50.0229 171.559 47.0659 168.231 46.5725 165.225C46.0427 161.997 45 158.926 45 155.636" stroke="black" stroke-width="5" stroke-linecap="round" stroke-linejoin="round"/>
<path d="M211.843 112.255C217.372 115.803 227.351 114.216 234.09 114.216C239.482 114.216 246 114.129 246 108.137C246 106.972 245.503 105.073 244.652 104.237C243.506 103.113 244.269 101.333 242.854 100.098C240.262 97.8365 236.651 97.4398 233.64 95.9804C232.416 95.387 230.412 95.8389 229.021 95.4793C227.433 95.0687 225.822 95 224.177 95C220.839 95 217.263 95.5691 215.438 98.3551C214.206 100.236 212.461 101.321 211.193 103.41C210.421 104.683 209.439 105.831 209.171 107.353C208.964 108.528 209.159 109.975 208.597 111.078C207.606 113.023 208.118 116.398 208.247 118.529C208.422 121.428 210.449 124.312 211.743 126.852C212.23 127.808 213.267 128.212 213.64 129.27C213.826 129.796 214.172 130.457 214.764 130.686C215.562 130.996 215.748 131.816 216.437 132.255C217.158 132.715 218.191 132.93 218.834 133.431C220.796 134.964 224.948 135 227.573 135C231.335 135 235.005 133.76 238.36 132.255C239.908 131.56 245.994 127.931 245.101 126.373" stroke="black" stroke-width="5" stroke-linecap="round" stroke-linejoin="round"/>
<path d="M258 99C260.448 99 262.419 99.2906 263.995 101.458C265.143 103.036 265.038 104.256 265.038 106.205C265.038 109.054 265.038 111.902 265.038 114.751C265.038 117.028 265.381 119.616 264.963 121.863C264.379 125.006 264.035 127.961 263.716 131.154C263.512 133.189 262.692 139.25 262.692 137.204" stroke="black" stroke-width="5" stroke-linecap="round" stroke-linejoin="round"/>
<path d="M265.708 108.384C265.796 104.771 269.981 102.989 272.746 101.607C273.903 101.028 275.163 100.311 276.283 99.6702C277.615 98.9089 279.985 99.3351 281.459 99.3351C284.965 99.3351 290.068 102.303 293 104" stroke="black" stroke-width="5" stroke-linecap="round" stroke-linejoin="round"/>
</svg>
