<svg width="400" height="200" viewBox="0 0 400 200" fill="none" xmlns="http://www.w3.org/2000/svg">
<g clip-path="url(#clip0)">
<rect width="400" height="200" fill="white"/>
<path d="M99.6867 78.9155C95.6339 124.915 95.6938 127.915 92.6938 164.915" stroke="black" stroke-width="5" stroke-linecap="round" stroke-linejoin="round"/>
<path d="M159.424 28.0001C161.424 46.5001 161.288 40.5 161.288 58.5C162.148 75.9902 157.424 102.5 168.424 117" stroke="black" stroke-width="5" stroke-linecap="round" stroke-linejoin="round"/>
<path d="M232.236 84.1161C222.34 72.3771 199.439 73.1245 194.096 87.9795C192.68 91.9165 192.993 96.2725 193.12 100.392C193.21 103.302 195.247 109.487 198.309 110.749C199.894 111.402 200.044 113.202 201.547 113.708C203.524 114.375 205.165 115.728 207.046 116.503C209.928 117.69 214.719 116.439 217.512 115.969C226.007 114.537 232.236 104.205 232.236 96.8571C232.236 93.8431 232.236 90.8291 232.236 87.8151C232.236 87.3588 232.25 84.4449 231.438 84.4449C230.758 84.4449 231.438 85.7053 231.438 86.3355C231.438 87.4452 231.438 88.5549 231.438 89.6646C231.438 95.9204 229.451 105.997 232.414 111.489C235.335 116.904 244.397 115.13 249 113.708" stroke="black" stroke-width="5" stroke-linecap="round" stroke-linejoin="round"/>
<path d="M99.6938 77.9154C101.181 77.9154 105.694 76 117.631 76C129.568 76 134.017 82.3641 135.6 89.8925C136.148 92.5002 136.683 95.1485 136.683 97.8266C136.683 98.9578 136.708 100.092 136.683 101.223C136.65 102.727 135.541 104.106 134.962 105.467C134.004 107.723 132.465 109.664 130.884 111.565C129.667 113.029 128.135 113.536 126.663 114.606C125.248 115.634 121.751 115.621 120.068 115.717C117.009 115.891 113.495 116.079 110.462 115.671C106.179 115.094 102.035 112.189 99.6938 108.786" stroke="black" stroke-width="5" stroke-linecap="round" stroke-linejoin="round"/>
<path d="M269.065 81C269.065 86.178 269.065 91.356 269.065 96.534C269.065 99.6875 268.685 102.95 269.767 105.904C270.363 107.53 271.047 108.995 272.224 110.412C273.668 112.151 275.652 113.554 277.051 115.238C278.94 117.513 287.69 117.43 289.995 115.872C290.983 115.205 292.545 114.96 293.725 114.463C294.869 113.982 295.601 113.301 296.621 112.702C298.448 111.63 300.027 109.747 300.746 108.017C301.072 107.23 301.161 106.602 301.645 105.869C302.258 104.939 301.941 104.046 302.325 103.121C302.637 102.369 303.284 101.589 303.4 100.796C303.522 99.9686 303.283 99.1147 303.51 98.2953C304.389 95.1194 303.817 91.4724 303.817 88.221C303.817 86.9529 303.817 85.6849 303.817 84.4168C303.817 83.1843 303.027 82.1533 303.027 81" stroke="black" stroke-width="5" stroke-linecap="round" stroke-linejoin="round"/>
<path d="M303.1 81C303.1 86.6106 303.488 92.1621 303.488 97.7629C303.488 101.461 303.488 105.159 303.488 108.857C303.488 113.644 304.486 118.156 305.039 122.872C305.398 125.934 305.815 129.15 305.815 132.216C305.815 135.596 306.427 139.439 305.427 142.732C303.94 147.629 301.054 152.099 297.866 156.416C295.103 160.157 289.016 161 284.08 161C278.817 161 274.308 160.928 269.927 158.235C267.023 156.45 264.066 153.122 263.573 150.116C263.043 146.889 262 143.818 262 140.528" stroke="black" stroke-width="5" stroke-linecap="round" stroke-linejoin="round"/>
<path d="M161.536 6.81888C168.018 5.32301 174.451 5.46365 181.051 5.46365C184.882 5.46365 189.201 4 193.032 4C203.971 4 214.745 7.46777 225.611 7.93017C232.998 8.24451 240.37 9.33317 247.729 9.80039C256.226 10.3399 264.905 9.8546 273.424 9.8546H323.134C328.275 9.8546 333.449 9.68916 338.583 9.96302C342.895 10.1929 346.963 11.2683 351.214 11.6977C357.621 12.3449 364.129 11.3378 370.54 12.0501C379.234 13.016 388.216 15.5119 391.573 24.464C393.142 28.6467 392.305 33.9676 392.305 38.3687V54.2791C392.305 60.7694 392.558 67.3039 391.925 73.7673C391.321 79.9443 390.841 85.8335 390.841 92.0629V136.108C390.841 143.253 390.611 150.088 389.865 157.168C389.372 161.859 388.744 167.273 385.962 171.236C380.597 178.877 377.499 189.682 368.642 194.274C365.43 195.94 361.136 196.714 357.557 196.714C350.976 196.714 344.453 197.202 337.879 197.202C328.15 197.202 317.969 192.181 308.253 192.458C298.693 192.732 289.259 193.407 279.658 193.407H238.513C225.376 193.407 212.707 197.093 199.482 196.226C180.772 194.999 162.11 195.319 143.376 194.491C134.857 194.115 126.239 194.91 117.735 194.274C110.231 193.713 102.583 192.651 95.0755 192.458C77.2477 192.001 60.5307 194.054 42.7906 192.323C36.2532 191.685 30.4994 188.42 23.8445 188.42C18.1659 188.42 8.34066 187.89 8.34066 180.614V143.562C8.34066 140.086 8.41619 136.601 8.34066 133.126C8.29702 131.119 7.30774 129.217 6.49754 127.434C5.80459 125.91 5.75176 124.169 5.19652 122.583C3.70427 118.319 3.37444 113.316 2.26922 108.895C0.72855 102.732 1.02241 96.7779 1.02241 90.4096C1.02241 81.4223 2.25522 72.3877 3.73287 63.5218C5.06375 55.5365 6.15121 47.3601 7.85277 39.4529C9.52657 31.6746 8.06828 23.659 12.84 16.685C16.4334 11.4331 21.4717 9.8546 27.3681 9.8546H54.9064H117.735C132.447 9.8546 147.119 10.1459 161.536 6.81888Z" stroke="black" stroke-width="5" stroke-linecap="round" stroke-linejoin="round"/>
</g>
<defs>
<clipPath id="clip0">
<rect width="400" height="200" fill="white"/>
</clipPath>
</defs>
</svg>
