<svg width="894" height="334" viewBox="0 0 894 334" fill="none" xmlns="http://www.w3.org/2000/svg">
<rect width="894" height="334" fill="white"/>
<path  d="M146.881 100.568C146.058 92.8512 145.499 70.6487 134.727 69.8793C128.191 69.4124 122.401 67.619 116.314 71.2162C107.856 76.214 106.216 84.9307 104.767 93.9442C102.011 111.094 105.568 122.076 115.159 136.666C121.739 146.675 128.619 155.884 136.55 164.863C145.043 174.477 150.023 185.893 153.809 198.043C157.303 209.256 159.877 224.789 148.947 232.804C142.391 237.612 131.647 238.098 123.849 238.334C118.581 238.494 110.293 239.992 105.254 237.787C96.5041 233.959 93.0057 224.506 93.2819 215.667C93.7305 201.313 102.13 192.817 114.673 187.834C126.006 183.332 135.641 179.326 148.036 179.326C160.054 179.326 172.369 178.585 184.316 179.934C200.195 181.727 215.719 183.018 231.716 182.608C243.41 182.308 242.047 168.631 242.047 160.731C242.047 146.425 227.085 144.323 215.308 144.323C206.796 144.323 207.044 158.68 207.044 165.106C207.044 176.847 213.848 185.036 221.811 192.999C229.504 200.693 234.396 204.493 237.915 215.181C244.637 235.597 238.105 256.488 234.39 276.923C233.465 282.01 233.628 286.896 233.235 291.994C233.123 293.461 230.1 301.799 232.385 298.8C243.976 283.587 251.473 267.073 259.549 249.82C263.049 242.342 265.751 234.725 268.543 226.97C271.808 217.901 276.464 209.177 278.145 199.623C279.988 189.144 281.312 178.425 281.426 167.78C281.475 163.257 280.681 158.005 281.669 153.56C282.145 151.419 282.632 151.839 283.249 154.046C284.991 160.276 286.191 166.654 287.382 173.006C288.936 181.299 290.127 189.41 293.702 197.071C296.636 203.359 304.117 202.608 309.867 202.297C320.837 201.704 321.899 184.792 321.899 177.199C321.899 174.019 321.899 170.839 321.899 167.658C321.899 161.948 324.757 178.742 326.821 184.066C329.978 192.207 333.655 196.467 341.953 198.165C349.587 199.726 364.099 201.778 370.515 195.856C378.356 188.618 378.78 181.016 378.78 170.636C378.78 168.988 378.447 164.109 381.028 167.658C385.536 173.857 386.127 182.756 389.658 189.596C392.993 196.059 394.065 201.203 401.751 201.203C412.73 201.203 415.474 191.396 420.286 183.276C425.002 175.318 429.409 169.642 439.185 169.481C441.693 169.44 462.98 171.941 463.858 170.332C466.077 166.264 444.407 163.075 443.257 162.979C430.418 161.909 426.735 179.995 433.047 188.502C439.828 197.642 453.156 199.328 461.062 191.602C462.916 189.79 466.829 184.719 469.57 184.796C478.096 185.032 477.98 214.63 478.443 218.827C479.971 232.672 483.17 253.19 471.15 263.493C463.302 270.22 459.122 271.211 449.455 271.211C446.826 271.211 440.468 269.792 440.401 266.349C440.307 261.565 453.402 256.616 456.687 254.803C461.987 251.876 469.153 248.434 473.095 243.621C485.894 227.994 492.195 205.437 501.171 187.591C504.406 181.159 506.788 172.61 514.419 171.426C517.015 171.023 523.707 171.858 525.722 170.515C528.283 168.807 519.624 169.481 516.546 169.481C511.349 169.481 506.148 170.444 505.728 176.531C505.487 180.038 504.394 186.288 507.43 188.685C513.62 193.571 527.894 197.919 531.92 188.806C533.272 185.748 534.405 183.607 535.202 180.42C535.934 177.492 543.621 190.187 543.953 190.751C554.909 209.355 568.018 228.764 568.018 251.278C568.018 258.137 562.293 262.003 557.444 265.984C553.33 269.362 548.82 274.728 547.964 265.498C546.927 254.322 547.66 240.521 555.256 231.588C560.701 225.186 566.58 218.914 572.272 212.689C577.282 207.209 578.04 199.798 580.111 192.939C585.32 175.684 588.801 160.802 588.801 142.621C588.801 134.194 588.801 125.768 588.801 117.341C588.801 115.418 588.622 102.226 589.53 104.822C596.077 123.525 597.731 142.833 602.414 161.824C604.652 170.901 606.434 180.975 614.021 187.044C621.156 192.752 629.014 193.986 638.025 193.486C656.389 192.465 666.262 159.631 642.4 163.04C632.104 164.511 637.251 189.799 640.456 195.613C645.244 204.298 656.312 202.297 664.521 202.297C668.356 202.297 672.728 201.661 676.067 203.938C678.486 205.588 681.811 208.076 682.691 203.087C684.999 190.01 676.508 176.315 677.465 162.918C678.177 152.949 702.421 157.449 709.247 157.449C711.759 157.449 714.271 157.449 716.783 157.449C720.478 157.449 718.971 166.408 718.971 168.995C718.971 173.633 718.19 180.065 721.645 183.702C731.425 193.997 751.115 194.111 763.819 194.64" stroke="black" stroke-width="5" stroke-linecap="round" stroke-linejoin="round"/>
<path d="M381.442 119.419C369.795 119.419 375.65 121.937 382.441 127.837C385.586 130.57 394.46 134.573 394.284 138.967C394.113 143.251 386.303 141.453 384.582 138.967C379.092 131.038 397.325 123.683 401.989 121.987" stroke="black" stroke-width="5" stroke-linecap="round" stroke-linejoin="round"/>
</svg>
